# xmcd
#
# Track frame offsets: 
#        150
#        18960
#        36220
#        51072
#        66762
#        84420
#        104010
#        118360
#        134165
#
# Disc length: 2058 seconds
#
# Revision: 1
# Processed by: cddbd v1.5.2PL0 Copyright (c) Steve Scherf et al.
# Submitted via: ExactAudioCopy v1.0b3
#
DISCID=80080809
DTITLE=Z. Z. Hill - Z. Z. Hill
DYEAR=1995
DGENRE=Blues
TTITLE0=Separate Way
TTITLE1=I'm So Lonesome I Could Cry
TTITLE2=Something Good Going On
TTITLE3=Bring It On Home To Me
TTITLE4=Please Don't Make Me (Do Something Bad To You)
TTITLE5=Chained To Your Love
TTITLE6=Rolling Stone
TTITLE7=Bump And Grind
TTITLE8=Blue Monday
EXTD=
EXTT0=
EXTT1=
EXTT2=
EXTT3=
EXTT4=
EXTT5=
EXTT6=
EXTT7=
EXTT8=
PLAYORDER=
